<?xml version="1.0" encoding="utf-8"?>
<!-- Generator: Adobe Illustrator 25.2.0, SVG Export Plug-In . SVG Version: 6.00 Build 0)  -->
<svg version="1.1" id="Layer_1" xmlns="http://www.w3.org/2000/svg" xmlns:xlink="http://www.w3.org/1999/xlink" x="0px" y="0px"
	 viewBox="0 0 435.7 413.1" style="enable-background:new 0 0 435.7 413.1;" xml:space="preserve">
<style type="text/css">
	.st0{opacity:0.7;}
	.st1{fill:#F08067;}
	.st2{fill:#F08D81;}
	.st3{fill:#F3BFBA;}
</style>
<g id="Group_21" transform="matrix(-0.342, 0.94, -0.94, -0.342, 101.532, 20.281)" class="st0">
	<g id="Group_20" transform="translate(0.323 2.226)">
		<path id="Path_56" class="st1" d="M45.7-203c-6.5-2.2-50.3-18.3-58.4-54.5c-5.7-25.5,7.7-53,39.7-81.7l0.4-0.4l0.5-0.4
			c3.1-2.4,31.5-23.2,60.3-23.2c13.2-0.3,26,4.9,35.2,14.3c15.4,15.8,21.9,43.3,19.9,83.9l0.4,44.5l-57.1,34.7L45.7-203z"/>
		<path id="Path_57" class="st1" d="M131.9-217.8l-4.3-54.7c-1.1-7.2-6.5-48.9,14.7-73.4c10.1-11.4,24.8-17.6,40-17.1
			c14.8,0.5,29.3,3.9,42.8,10l0.6,0.3l0.6,0.3c9,5,17.4,11,25.1,17.9c17.6,15.7,27.2,33.3,27.7,50.7c0.8,24.6-15.5,47.2-48.3,67.5
			l-45.4,32L131.9-217.8z"/>
		<path id="Path_58" class="st1" d="M287-85.8c-16.7,0-35.8-6.8-58.1-20.8L179.3-134l-2.8-62.4l35.3-27.8
			c5.2-4.8,34.8-30.8,66.7-30.8c44.1,0,59.5,46.2,64.6,84.9l0.1,0.5l0,0.5c0.3,4.6,2,45.6-20.1,68.5C313.6-90.9,300.6-85.5,287-85.8
			z"/>
		<path id="Path_59" class="st1" d="M186.3,25.2c-12,0.3-23.6-4.4-32.1-12.9C140.8-1.2,134.7-24.2,135.6-58l-0.1-51.7l50.3-35.3
			l44.7,18.5c5.3,1.9,43.9,16.7,51.8,50c5.5,23.2-5.1,48.2-31.7,74.3l-0.5,0.5l-0.5,0.4C246.2,1.4,215.8,25.2,186.3,25.2z"/>
		<path id="Path_60" class="st1" d="M98.5,26.5C81.7,25.9,65.2,21.9,50,14.7l-0.6-0.3l-0.6-0.3c-1.9-1-46.2-25.7-47.1-65.2
			C1-77.5,19.6-102.4,56.7-125l33.4-21.6l58.8,30.1l5.7,67.7c0.6,6.8,0.6,13.6-0.1,20.3c-0.9,14.1-6.4,27.6-15.5,38.4
			C128.5,21.1,113.8,27.1,98.5,26.5z"/>
		<path id="Path_61" class="st1" d="M0.2-80.2c-24.6,0-56.1-13.8-66.7-79.7l-0.1-0.4l0-0.4c-0.6-7.5-0.5-14.9,0.4-22.4
			c1.1-15.1,7-29.5,16.9-41.1C-39-235-24.6-240.9-9.7-240.4c19.3,0,42,7.7,69.4,23.5l36.1,19.4l3.6,67.5l-35.9,23.8
			C58.5-102.1,30.3-80.2,0.2-80.2z"/>
		<path id="Path_62" class="st1" d="M135.2-85.8c-42.7-0.8-76.6-36.1-75.8-78.8c0.8-42.7,36.1-76.6,78.8-75.8
			c42.1,0.8,75.8,35.2,75.8,77.3C213.6-120,178.3-85.4,135.2-85.8z"/>
	</g>
	<path id="Path_63" class="st2" d="M75.7-214.8l-36.1-15.6c0,0-107.8-34.7-14.8-119.7c0,0,103.4-79.8,96.3,67.7l0.4,39.3L75.7-214.8
		z"/>
	<path id="Path_64" class="st2" d="M138.6-240.8l-3.9-51.3c0,0-18.4-112.2,81-70.1c0,0,104,56.3,3.5,119l-39.5,28.4L138.6-240.8z"/>
	<path id="Path_65" class="st2" d="M186-202.5l31.4-25.3c0,0,94.2-90.7,112.2,48.2c0,0,6.7,118.8-96.4,52.8L188.2-152L186-202.5z"/>
	<path id="Path_66" class="st2" d="M182.3-137.7l39.2,16.6c0,0,91.8,31.5,15.8,107.6c0,0-97.9,80.6-94.3-48.6l-0.1-47.5L182.3-137.7
		z"/>
	<path id="Path_67" class="st2" d="M127.7-114.9l5.3,64c0,0,11.4,95.8-88.1,52.3c0,0-99-55.2,9-122.2L81.5-139L127.7-114.9z"/>
	<path id="Path_68" class="st2" d="M74.9-146.5l-31.1,21c0,0-91.6,79.8-111.7-47.5c0,0-11.5-116.5,109.4-45.3L72-201.5L74.9-146.5z"
		/>
	
		<ellipse id="Ellipse_4" transform="matrix(0.3419 0.9397 -0.9397 0.3419 -79.503 -234.4882)" class="st3" cx="127.7" cy="-174" rx="67.2" ry="67.2"/>
</g>
</svg>
