<?xml version="1.0" encoding="utf-8"?>
<!-- Generator: Adobe Illustrator 25.2.0, SVG Export Plug-In . SVG Version: 6.00 Build 0)  -->
<svg version="1.1" id="Layer_1" xmlns="http://www.w3.org/2000/svg" xmlns:xlink="http://www.w3.org/1999/xlink" x="0px" y="0px"
	 viewBox="0 0 435.7 363.1" style="enable-background:new 0 0 435.7 363.1;" xml:space="preserve">
<style type="text/css">
	.st0{opacity:0.803;}
	.st1{fill:#F08067;}
	.st2{fill:#F19B91;}
	.st3{fill:#F19E94;}
	.st4{fill:#F3BFBA;}
	.st5{fill:#F08D81;}
</style>
<g id="Group_39" transform="translate(-6797.801 -5807.788) rotate(16)" class="st0">
	<g id="Group_31" transform="translate(8288.235 3707.451) rotate(-15)">
		<g id="Group_14" transform="translate(0 0)">
			<path id="Path_30" class="st1" d="M183.8,266c-7.9,0-14.4-2.6-19.4-7.7c-3.3-3.5-5.8-7.7-7.3-12.3c-1.3,3.4-3.2,6.5-5.5,9.2
				c-6.1,7-14.9,10.5-26.3,10.5l0,0c-9.2,0-20.3-2.4-32.8-7.1l-0.2-0.1l-0.2-0.1c-1.3-0.6-31-15.1-31.5-37.8
				c-0.1-7,2.5-13.9,7.9-20.6c-1.9,0.3-3.8,0.5-5.7,0.5l0,0c-9.2,0-17-3.8-23.2-11.3c-7-8.4-11.9-21.7-14.5-39.6l0-0.1l0-0.1
				c-0.1-1.1-2.3-26.6,10.4-40.5c5.3-5.8,12.4-8.8,21-8.8c2.3,0,4.6,0.2,6.8,0.6c-3-3.8-5.1-8.2-6.2-12.9C54,73.3,62.5,57.2,82.3,40
				l0.1-0.1l0.1-0.1c0.8-0.6,19.3-14,37.2-14c8.2,0,15,2.8,20.2,8.3c3.4,3.7,5.9,8.1,7.5,12.8c1.3-3.5,3.1-6.7,5.4-9.6
				c6-7.3,14.9-11,26.3-11c8.2,0,17.9,2,28.8,5.9l0.2,0.1l0.2,0.1c1.4,0.7,35.2,16.3,35.8,39.7c0.2,7-2.5,13.8-8.1,20.3
				c2-0.3,4-0.5,6.1-0.5c9.3,0,17.1,3.8,23.2,11.4c6.9,8.5,11.6,21.9,13.9,39.8l0,0.2l0,0.2c0.1,1.1,1.4,27.1-11.6,40.8
				c-5.2,5.5-12.4,8.5-20,8.3l0,0c-2.1,0-4.3-0.2-6.4-0.6c2.8,3.6,4.8,7.7,5.8,12.2c3.1,13.8-4.2,28.9-21.5,45l-0.1,0.1l-0.2,0.1
				C224.5,250,203.1,266,183.8,266L183.8,266z"/>
			<path id="Path_31" class="st2" d="M113.9,119.6l-23.3-9.5c0,0-69.6-21.2-9.5-73.2c0,0,66.8-48.8,62.2,41.4l0.2,24L113.9,119.6z"
				/>
			<path id="Path_32" class="st2" d="M148.1,102.3l-2.8-30.6c0,0-13-66.9,57.3-41.8c0,0,73.5,33.6,2.5,71l-27.9,17L148.1,102.3z"/>
			<path id="Path_33" class="st2" d="M180.7,123.2l19.8-15.6c0,0,59.4-55.8,70.7,29.7c0,0,4.2,73.2-60.8,32.5l-28.3-15.5
				L180.7,123.2z"/>
			<path id="Path_34" class="st2" d="M180.7,160.3l27.2,10.6c0,0,63.6,20.1,11,68.9c0,0-67.9,51.6-65.4-31.1l-0.1-30.4L180.7,160.3z
				"/>
			<path id="Path_35" class="st3" d="M148.1,178.6l3.7,38.5c0,0,8,57.6-62,31.5c0,0-69.6-33.2,6.4-73.5l19.4-11L148.1,178.6z"/>
			<path id="Path_36" class="st2" d="M112.8,160.3L93.7,174c0,0-56.2,52.3-68.6-31.1c0,0-7.1-76.3,67.2-29.7l18.7,11L112.8,160.3z"
				/>
			<circle id="Ellipse_1" class="st4" cx="147" cy="140.4" r="38.7"/>
		</g>
	</g>
	<g id="Group_32" transform="translate(8165.012 3803.95) rotate(-15)">
		<g id="Group_18" transform="translate(0)">
			<path id="Path_43" class="st1" d="M67.7,118.3c-3.5-1.2-26.9-9.9-31.2-29.7c-3-13.9,4.1-28.9,21.2-44.5l0.2-0.2l0.3-0.2
				c1.7-1.3,16.8-12.6,32.2-12.6c7.1-0.1,13.9,2.7,18.8,7.8c8.2,8.6,11.7,23.6,10.6,45.7l0.2,24.2l-30.5,18.9L67.7,118.3z"/>
			<path id="Path_44" class="st1" d="M113.8,110.2l-2.3-29.8c-0.6-3.9-3.5-26.6,7.9-40c5.2-6.1,12.6-9.3,21.4-9.3
				c6.6,0,14.3,1.8,22.9,5.4l0.3,0.1l0.3,0.2c4.8,2.7,9.3,6,13.4,9.7c9.4,8.6,14.5,18.1,14.8,27.6c0.4,13.4-8.3,25.7-25.8,36.8
				l-24.2,17.5L113.8,110.2z"/>
			<path id="Path_45" class="st1" d="M196.6,182.2c-8.9,0-19.1-3.7-31.1-11.3l-26.5-14.9l-1.5-34l18.9-15.2
				c2.8-2.6,18.6-16.8,35.6-16.8c23.6,0,31.8,25.2,34.5,46.3l0,0.3l0,0.3c0.1,2.5,1,24.8-10.7,37.3
				C210.9,179.4,203.9,182.3,196.6,182.2z"/>
			<path id="Path_46" class="st1" d="M142.8,242.7c-6.4,0.1-12.6-2.4-17.2-7c-7.2-7.4-10.4-19.9-9.9-38.4l-0.1-28.2l26.9-19.2
				l23.9,10.1c2.8,1,23.4,9.1,27.7,27.2c2.9,12.7-2.8,26.3-16.9,40.5l-0.3,0.3l-0.3,0.2C174.8,229.7,158.6,242.7,142.8,242.7z"/>
			<path id="Path_47" class="st1" d="M96,243.4c-7.5,0-16-2.1-25.9-6.4l-0.3-0.2l-0.3-0.2c-1-0.6-24.7-14-25.2-35.5
				c-0.3-14.4,9.6-27.9,29.4-40.3l17.8-11.8l31.4,16.4l3,36.9c0.3,3.7,0.3,7.4-0.1,11.1c-0.9,8.7-3.7,15.8-8.3,20.9
				C112.3,240.2,104.8,243.4,96,243.4z"/>
			<path id="Path_48" class="st1" d="M43.4,185.2c-13.1,0-29.9-7.5-35.6-43.4l0-0.2l0-0.2c-0.3-4.1-0.2-8.1,0.2-12.2
				c1.1-9.5,4.1-17,9-22.4c5.3-5.8,12.6-8.9,21.1-8.9c10.3,0,22.4,4.2,37.1,12.8l19.3,10.6l1.9,36.8l-19.2,13
				C74.6,173.3,59.5,185.2,43.4,185.2z"/>
			<path id="Path_49" class="st1" d="M115.6,182.2c-23.3,0-42.1-18.9-42.1-42.1s18.9-42.1,42.1-42.1s42.1,18.9,42.1,42.1l0,0
				C157.6,163.3,138.8,182.1,115.6,182.2z"/>
		</g>
		<path id="Path_50" class="st5" d="M87.6,114.8l-18.5-8c0,0-55.2-17.8-7.6-61.3c0,0,53-40.9,49.3,34.7l0.2,20.1L87.6,114.8z"/>
		<path id="Path_51" class="st5" d="M119.8,101.5l-2-26.3c0,0-9.4-57.4,41.5-35.9c0,0,53.2,28.8,1.8,61l-20.2,14.6L119.8,101.5z"/>
		<path id="Path_52" class="st5" d="M144.1,121.1l16.1-12.9c0,0,48.2-46.4,57.4,24.7c0,0,3.4,60.8-49.4,27l-23-12.9L144.1,121.1z"/>
		<path id="Path_53" class="st5" d="M142.2,154.3l20.1,8.5c0,0,47,16.1,8.1,55.1c0,0-50.1,41.3-48.3-24.9l0-24.3L142.2,154.3z"/>
		<path id="Path_54" class="st5" d="M114.2,166l2.7,32.8c0,0,5.8,49.1-45.1,26.8c0,0-50.7-28.3,4.6-62.6l14.2-9.3L114.2,166z"/>
		<path id="Path_55" class="st5" d="M87.2,149.8l-15.9,10.8c0,0-46.9,40.9-57.2-24.3c0,0-5.9-59.7,56.1-23.2l15.6,8.6L87.2,149.8z"
			/>
		<circle id="Ellipse_3" class="st4" cx="114.2" cy="135.7" r="34.4"/>
	</g>
	<g id="Group_33" transform="translate(8219.012 3684.75) rotate(-15)">
		<g id="Group_16" transform="translate(0 0)">
			<path id="Path_37" class="st5" d="M73.9,79.8l-14.8-6.1c0,0-44.2-13.5-6.1-46.4c0,0,42.4-31,39.5,26.2l0.1,15.2L73.9,79.8z"/>
			<path id="Path_38" class="st5" d="M95.7,68.8l-1.8-19.4c0,0-8.3-42.5,36.3-26.5c0,0,46.7,21.3,1.6,45.1l-17.7,10.8L95.7,68.8z"/>
			<path id="Path_39" class="st5" d="M116.3,82l12.6-9.9c0,0,37.7-35.4,44.9,18.8c0,0,2.7,46.4-38.6,20.6l-17.9-9.9L116.3,82z"/>
			<path id="Path_40" class="st5" d="M116.3,105.6l17.3,6.7c0,0,40.4,12.8,7,43.7c0,0-43.1,32.7-41.5-19.7l0-19.3L116.3,105.6z"/>
			<path id="Path_41" class="st5" d="M95.7,117.2l2.4,24.4c0,0,5.1,36.6-39.3,20c0,0-44.2-21.1,4-46.7l12.3-7L95.7,117.2z"/>
			<path id="Path_42" class="st5" d="M73.3,105.6l-12.1,8.7c0,0-35.7,33.2-43.5-19.7c0,0-4.5-48.4,42.6-18.8l11.9,7L73.3,105.6z"/>
		</g>
		<circle id="Ellipse_2" class="st4" cx="95" cy="93" r="24.6"/>
	</g>
</g>
</svg>
