<svg id="Layer_1" data-name="Layer 1" xmlns="http://www.w3.org/2000/svg" viewBox="0 0 580.83 391.35"><defs><style>.cls-1{fill:#e38769;}.cls-2{fill:#eab48f;}</style></defs><g id="Layer_1-2" data-name="Layer 1"><path id="Path_7" data-name="Path 7" class="cls-1" d="M415.76,82.47a11.45,11.45,0,0,0-11.88,11V94a55.77,55.77,0,0,1-1,11.09c-1.08-11.83-13.6-22.6-26.8-22.6a13.22,13.22,0,0,0-11.95,5.77c-6.63-5.77-19.71-5.77-25-5.77a13.85,13.85,0,0,0-2.94.31C341,71.1,343.35,64,343.35,59.89c0-10.91-15.52-22-26.68-22-9.32,0-13.57,6-13.57,11.51s-9.83,29.17-17,46.2c-2.94-8.08-10.77-13.13-21.28-13.13a49.07,49.07,0,0,0-27.31,9.27,25.5,25.5,0,0,0-21-9.27c-9.33,0-13.57,6-13.57,11.51,0,.25,0,.52,0,.79a35.24,35.24,0,0,0-26.3-12.3,11.51,11.51,0,0,0-12.24,10.74c0,.26,0,.51,0,.77a43.91,43.91,0,0,1-.89,8.48,27.79,27.79,0,0,0-25.19-19.95,12.06,12.06,0,0,0-12.8-9.2,114.8,114.8,0,0,0-23.79,3.81,173.05,173.05,0,0,1,7.5-17.71c.18-.32.33-.6.48-.81A40.29,40.29,0,0,1,123.93,66c5.59,3.82,10.41,7.12,15.92,7.12,13.87,0,30.81-27.52,30.81-41.12A10.28,10.28,0,0,0,160.49,21.6a.81.81,0,0,0-.22,0,19.2,19.2,0,0,0-6.55,1.56,54.12,54.12,0,0,1-19.1,3.68c-2.65,0-6.86-.3-11.75-.65-8.25-.59-19.54-1.41-32.08-1.41-20.59,0-84.31,35.93-84.31,37.7,59.33-32.23,24.06,43,36.93,43,0,0,17.33-.21.48,0s-22.46,40.06-22.46,45.85c0,12.77,25.18,17.09,40.52,17.09,4,0,10.91-1.6,12.69-12.24a303.75,303.75,0,0,1,13.87-44.6,73.94,73.94,0,0,1,17.93,4.4,17.53,17.53,0,0,0,6.09,1.5,11.25,11.25,0,0,0,3.72-.61c-4.08,9.52-7.92,18.5-7.92,26.76,0,13.62,9.89,23.12,24,23.12a49.78,49.78,0,0,0,26.86-8.51,34.82,34.82,0,0,0,23.34,8.51,11,11,0,0,0,9.86-5.49,40.42,40.42,0,0,0,22.73,5.49,11.32,11.32,0,0,0,10-5.17c1.7,17.59,16.8,30.46,36.44,30.46,23.3,0,40.17-3.49,40.17-24.43a10.66,10.66,0,0,0-.2-2,11,11,0,0,0,6.25-9.34c3.35,5.6,8.18,10.51,15.59,10.51A36.66,36.66,0,0,0,348,155.57c3.57,7,11,11.19,21,11.19a47.63,47.63,0,0,0,13.68-1.95c-6.4,12.9-15.09,22.39-28.85,22.39a16.41,16.41,0,0,1-9.49-2.18,13.28,13.28,0,0,0-6.8-2.12A11.14,11.14,0,0,0,326.35,194c0,11.85,16.46,29.45,43.35,29.45,36.69,0,49.48-36.7,58.81-66.53,1.16-3.69,2.29-7.28,3.41-10.7,2.53-7.65,5.29-15.05,7.74-21.59,4.39-11.75,6.17-16.64,6.17-20.16C445.81,93.89,434.32,82.47,415.76,82.47ZM51.21,86.3A19.57,19.57,0,0,1,50,78.8c0-6,4.34-11.83,11.25-16.32-3,6.56-6.52,14.88-10.07,23.82ZM350,127.48a13,13,0,0,0-3.34-.44,14.89,14.89,0,0,0-4.49.76,6.73,6.73,0,0,1-2.44.37,10.2,10.2,0,0,1-1.25,0,92.22,92.22,0,0,0,15.45-9.6C352.53,121.57,351.17,124.55,350,127.48Z" transform="translate(-2.95 -2.69)"/><path class="cls-1" d="M411.17,63.55h-.51a11.45,11.45,0,0,0-11.38,11.52,55,55,0,0,1-1,11.09c-1.07-11.83-13.59-22.6-26.79-22.6a13.21,13.21,0,0,0-11.95,5.77c-6.62-5.77-19.73-5.77-24.95-5.77a13.76,13.76,0,0,0-2.93.31c4.8-11.68,7.13-18.8,7.13-22.89,0-10.9-15.53-22-26.68-22-9.33,0-13.57,6-13.57,11.51s-9.83,29.17-17,46.2c-3-8.08-10.77-13.13-21.29-13.13a49.14,49.14,0,0,0-27.3,9.27,25.5,25.5,0,0,0-21-9.27c-9.32,0-13.57,6-13.57,11.51,0,.25,0,.52,0,.79A35.25,35.25,0,0,0,172,63.55a6.43,6.43,0,0,0-.76,0,11.51,11.51,0,0,0-11.49,11.53,44.72,44.72,0,0,1-.9,8.48,27.82,27.82,0,0,0-25.19-20,12.08,12.08,0,0,0-12.79-9.2A115.38,115.38,0,0,0,97.05,58.2a170.88,170.88,0,0,1,7.48-17.7c.18-.34.34-.61.48-.83a40.47,40.47,0,0,1,14.32,7.39c5.59,3.82,10.69,5.39,15.93,7.11,17.68,5.81,46.5-3.57,30.93-40.77-.08-.19-.2-.35-.28-.54A12.22,12.22,0,0,1,165,11l-.17-.39c-1.75-3-5.22-7.94-9.17-7.9a19.31,19.31,0,0,0-6.56,1.56A54,54,0,0,1,130,7.93c-2.64,0-6.86-.3-11.75-.65-8.25-.59-19.54-1.4-32.08-1.4C65.6,5.88,3,5.88,3,51.66c0,23.24,23,34.92,35.86,34.92h.48C31.79,107,25.61,126.41,25.61,132.2c0,12.77,16.4,17.32,31.74,17.32,4,0,10.91-1.61,12.68-12.24A305.47,305.47,0,0,1,83.9,92.67a74.31,74.31,0,0,1,17.93,4.41,17.64,17.64,0,0,0,6.09,1.5,11.25,11.25,0,0,0,3.72-.61c-4.08,9.52-7.92,18.51-7.92,26.76,0,13.61,9.9,23.12,24.06,23.12a49.93,49.93,0,0,0,26.86-8.52A34.86,34.86,0,0,0,178,147.85a11,11,0,0,0,9.86-5.5,40.47,40.47,0,0,0,22.74,5.49,11.35,11.35,0,0,0,10-5.17c1.71,17.58,16.81,30.46,36.45,30.46,23.3,0,40.17-14.6,40.17-24.44a10.66,10.66,0,0,0-.2-2,11,11,0,0,0,6.25-9.34c3.35,5.62,8.18,10.51,15.59,10.51a36.66,36.66,0,0,0,24.55-11.19c3.58,7,11,11.19,21,11.19a47.64,47.64,0,0,0,13.68-2c-6.4,12.9-15.09,22.4-28.85,22.4a16.34,16.34,0,0,1-9.49-2.19,13.37,13.37,0,0,0-6.81-2.11,11.13,11.13,0,0,0-11.13,11.13c0,11.85,16.45,33.61,43.35,33.61,36.68,0,49.46-40.85,58.8-70.72,1.15-3.68,2.27-7.27,3.4-10.69,2.51-7.65,5.29-15.06,7.73-21.59,4.39-11.76,6.18-16.66,6.18-20.17C441.22,75,429.73,63.55,411.17,63.55ZM46.63,67.41a19.59,19.59,0,0,1-1.18-7.51c0-6,4.34-11.82,11.26-16.31C53.69,50.15,50.18,58.47,46.63,67.41ZM345.4,108.58a12.55,12.55,0,0,0-3.34-.43,14.87,14.87,0,0,0-4.48.75,6.76,6.76,0,0,1-2.45.38c-.42,0-.83,0-1.23,0a92.13,92.13,0,0,0,15.44-9.6C348,102.67,346.59,105.64,345.4,108.58Z" transform="translate(-2.95 -2.69)"/><path id="Path_9" data-name="Path 9" class="cls-2" d="M120.85,62.73c3.38,0,4.69,1.5,4.69,3,0,2.61-9.55,14-14.24,21.73-1.3,2.06-1.87,2.81-3.37,2.81-1.87,0-13.67-6.18-29.59-6.18,0,0-12.73,31.47-16.48,51.69-.57,3.38-1.5,5.44-4.5,5.44-8.62,0-23.42-2.25-23.42-9,0-8.61,23.23-73.43,34.66-93.84A49.07,49.07,0,0,1,79.83,27.33c-22.1,2.25-42.7,15.17-42.7,32.59,0,11.8,4.69,14.42,4.69,16.48,0,1.12-1.13,1.87-3,1.87-9,0-27.54-8.81-27.54-26.6,0-31.27,38-37.45,74.93-37.45,19.85,0,36.15,2.06,43.82,2.06,14.24,0,23.23-5.25,25.67-5.25a2,2,0,0,1,2.06,1.85v.21c0,11.24-15.36,32.78-22.48,32.78-6.93,0-18.93-14.61-31.66-14.61-2.43,0-4.3,1.49-6.36,5.24C91.45,47.92,87.89,59.72,83,71.9,84.7,70,108.49,62.73,120.85,62.73Zm20.24,56c0,2.25,1.12,3.37,3.18,3.37,10.87,0,23.79-29.41,23.79-47,0-1.87,1.31-3.19,3.93-3.19,10.87,0,21.54,7.68,21.54,13.68,0,5.8-14,25.85-14,42.52a43.71,43.71,0,0,0,1.31,9.17c0,1.31-.94,2.25-2.81,2.25-15.18,0-21-10.49-22.29-10.49-2.06,0-12.18,10.49-27.91,10.49-8.81,0-15.73-5.05-15.73-14.8,0-13.48,15.17-34.65,15.17-49.63,0-1.87,1.87-3.19,5.43-3.19,9.18,0,18.36,8.25,18.36,15.93C151,97.57,141.09,109.37,141.09,118.73Zm101.7-30.92c-2.81,0-9,4.12-14.41,12.55-6.56,10.3-14.24,26.6-14.24,34.65,0,2.81-.56,4.49-3.56,4.49-8.81,0-21-2.24-21-9,0-13.49,17-40.47,17-55.45,0-1.87,1.69-3.18,5.25-3.18,16.67,0,17.42,13.67,18.16,13.67s13.3-13.67,30.16-13.67c9.37,0,14.23,4.87,14.23,12.36,0,12.73-15.36,29.41-15.36,47.58,0,9.36,6,16.66,17.42,16.66a35.14,35.14,0,0,0,9.93-2.06,2.32,2.32,0,0,1,2.43,2.21v0c0,3.74-11.8,16.11-31.85,16.11-15.73,0-28.28-10.3-28.28-25.48,0-21.91,17-41,17-48.51a2.75,2.75,0,0,0-2.49-3A2.09,2.09,0,0,0,242.79,87.81Zm66.5,7.31a.68.68,0,0,0,.61.75H310c7.3,0,18.35-11.8,20.79-21.54a3.54,3.54,0,0,1,3.75-2.44c6.93,0,20.6.57,20.6,6.37,0,11.06-27.53,27.35-41,29.22a27.16,27.16,0,0,0,21,10.12,42.59,42.59,0,0,0,6.93-1.12c1.88,0,2.62.75,2.62,2.43,0,6.18-12.73,20.6-25.85,20.6-10.3,0-13.3-22.84-16.86-22.84-2.25,0-6.56,13.67-6.93,18.93-.19,2.8-.94,3.91-3.56,3.91-8.81,0-21-2.24-21-9,0-13.49,36.34-85,36.34-100,0-1.87,1.68-3.18,5.24-3.18,7.87,0,18.35,8.43,18.35,13.67,0,8.25-21.14,52.08-21.14,54.14Zm73,27a19.77,19.77,0,0,0,13.12-8.43c9.74-15.36,12.17-27.35,12.17-38.59a3.18,3.18,0,0,1,3.12-3.21,3.25,3.25,0,0,1,.44,0c13.68,0,21.73,7.68,21.73,13.67,0,3.75-7.51,21-13.49,39.16-10.11,30.53-19.85,75.67-54.31,75.67-23.42,0-35-19.1-35-25.29a2.76,2.76,0,0,1,2.71-2.81h.1c2.61,0,4.87,4.31,16.3,4.31,27.72,0,38.4-29.59,44-46.26,0-.56.19-.94.19-1.3a.39.39,0,0,0-.37-.38c-2.06,0-11.24,10.86-28.66,10.86-8.81,0-15-4.11-15-13.29,0-13.68,16.86-36.16,16.86-51.14,0-1.87,1.87-3.19,5.24-3.19,9.37,0,18.55,8.25,18.55,15.93,0,10.67-11,21.53-11,30.9a3.06,3.06,0,0,0,2.71,3.37,2.36,2.36,0,0,0,.65,0Z" transform="translate(-2.95 -2.69)"/></g><g id="Layer_2" data-name="Layer 2"><path id="Path_10" data-name="Path 10" class="cls-1" d="M507.64,394c-26.9,0-43.35-21.76-43.35-33.62a11.13,11.13,0,0,1,11.13-11.13,13.31,13.31,0,0,1,6.82,2.11,16.33,16.33,0,0,0,9.46,2.19c13.76,0,22.45-9.49,28.86-22.39a48,48,0,0,1-13.68,2c-9.93,0-17.39-4.17-21-11.2a36.67,36.67,0,0,1-24.55,11.2c-7.42,0-12.24-4.9-15.59-10.52a11,11,0,0,1-6.26,9.35,9.82,9.82,0,0,1,.2,2c0,9.84-16.87,24.43-40.17,24.43-19.64,0-34.74-12.87-36.44-30.46a11.34,11.34,0,0,1-10,5.18,40.42,40.42,0,0,1-22.73-5.49,11,11,0,0,1-9.85,5.49,34.86,34.86,0,0,1-23.34-8.52,53.72,53.72,0,0,1-18.12,7.64,10,10,0,0,1,.14,1.73c0,9.84-16.86,24.43-40.16,24.43-20.24,0-35.67-13.67-36.57-32.08a11.11,11.11,0,0,1-10.82,6.8c-13.75,0-23.54-3.84-27.44-10.38a63.56,63.56,0,0,1-33.82,10.38c-28.66,0-57.58-16.48-57.58-53.28q0-2.94.21-5.88a10.72,10.72,0,0,1-9.12,4.64c-10.7,0-36-15.52-36-40,0-16.68,15.33-30.24,34.17-30.24,13.79,0,26.49,4.64,38.73,9.73,17.36-16.3,40.89-27,60.16-27,19.53,0,33.73,8.79,38,22.62.9-4.9,5.18-9.5,13.38-9.5,13.21,0,26.68,11.09,26.68,22,0,5.22-3,13.41-7.65,24.17a41.35,41.35,0,0,1,10.94-1.6,22.43,22.43,0,0,1,19.46,9.19c1.05-4.76,5.37-9.19,13.51-9.19a27.81,27.81,0,0,1,26.18,20,44.9,44.9,0,0,0,.89-8.49,11.53,11.53,0,0,1,11.5-11.54l.76,0a35.21,35.21,0,0,1,26.3,12.3c0-.27,0-.53,0-.79,0-5.55,4.25-11.51,13.58-11.51a25.45,25.45,0,0,1,21,9.28,49,49,0,0,1,27.32-9.23c10.51,0,18.34,5.05,21.28,13.13,7.21-17,17-40.52,17-46.2s4.25-11.51,13.58-11.51c11.16,0,26.67,11.09,26.67,22,0,4.09-2.32,11.21-7.13,22.89a13.25,13.25,0,0,1,2.94-.33c5.24,0,18.32,0,24.95,5.77a13.22,13.22,0,0,1,12-5.75c13.2,0,25.72,10.77,26.79,22.62a55.13,55.13,0,0,0,1-11.1,11.45,11.45,0,0,1,11.37-11.52h.52c18.55,0,30,11.42,30,22,0,3.5-1.77,8.41-6.16,20.15-2.44,6.53-5.22,13.95-7.73,21.6-1.14,3.43-2.27,7-3.42,10.72C557.1,353.19,544.32,394,507.64,394ZM128.73,256.9a87.49,87.49,0,0,0-4.06,26.92c0,11.37,5.43,17.89,14.9,17.89A23.42,23.42,0,0,0,154,296.49a15,15,0,0,1,8.57-3.22,9.8,9.8,0,0,1,5.57,1.77c2.86-7.48,6.83-17.07,12-29.44,2.29-5.47,5-11.81,7.53-18.12C178,255,163.81,258.6,150.25,258.6A155.15,155.15,0,0,1,128.73,256.9Zm347.68,37.66c.41,0,.83,0,1.26,0a6.93,6.93,0,0,0,2.43-.36,14.65,14.65,0,0,1,4.49-.77,13,13,0,0,1,3.34.43c1.19-2.92,2.54-5.9,3.92-8.94A92.13,92.13,0,0,1,476.41,294.56ZM77.2,249.81c-7.6,0-7.6,2.66-7.6,4.41a13,13,0,0,0,2.56,7.22,18.67,18.67,0,0,1,2,3.88,79.31,79.31,0,0,1,4.53-15.49Zm82.26-28.68A27.25,27.25,0,0,0,147,227.81c7.35-1.46,11.1-4.49,12.46-6.68Z" transform="translate(-2.95 -2.69)"/><path id="Path_11" data-name="Path 11" class="cls-1" d="M499.31,374.66c-26.89,0-43.35-21.76-43.35-33.61a11.15,11.15,0,0,1,11.14-11.14,13.29,13.29,0,0,1,6.81,2.12,16.42,16.42,0,0,0,9.47,2.19c13.76,0,22.44-9.5,28.85-22.4a47.29,47.29,0,0,1-13.68,2c-9.93,0-17.39-4.17-21-11.19A36.66,36.66,0,0,1,453,313.78c-7.41,0-12.24-4.89-15.59-10.51a11,11,0,0,1-6.25,9.34,10.66,10.66,0,0,1,.2,2c0,9.84-16.87,24.43-40.17,24.43-19.65,0-34.74-12.87-36.45-30.46a11.29,11.29,0,0,1-10,5.17A40.34,40.34,0,0,1,322,308.3a11,11,0,0,1-9.85,5.48,34.83,34.83,0,0,1-23.34-8.52,53.19,53.19,0,0,1-18.11,7.64,10.2,10.2,0,0,1,.13,1.74c0,9.84-16.86,24.43-40.16,24.43-20.23,0-35.66-13.68-36.57-32.08a11.09,11.09,0,0,1-10.82,6.79c-13.74,0-23.53-3.83-27.43-10.37a63.48,63.48,0,0,1-33.82,10.37c-28.66,0-57.59-16.47-57.59-53.27,0-2,.08-3.92.22-5.88a10.72,10.72,0,0,1-9.12,4.64c-10.7,0-36-15.52-36-40,0-16.67,15.34-30.24,34.18-30.24,13.79,0,26.48,4.64,38.72,9.73,17.37-16.3,40.9-27,60.17-27,19.53,0,33.73,8.78,37.94,22.61.91-4.89,5.18-9.5,13.38-9.5,13.22,0,26.68,11.09,26.68,22,0,5.22-3,13.41-7.64,24.18a41.21,41.21,0,0,1,10.93-1.6,22.42,22.42,0,0,1,19.47,9.18c1-4.76,5.36-9.18,13.5-9.18a27.82,27.82,0,0,1,26.19,20,45.54,45.54,0,0,0,.89-8.48,11.5,11.5,0,0,1,11.49-11.53c.25,0,.51,0,.76,0a35.23,35.23,0,0,1,26.3,12.3c0-.27,0-.54,0-.79,0-5.55,4.24-11.51,13.57-11.51a25.5,25.5,0,0,1,21,9.27,49.12,49.12,0,0,1,27.3-9.27c10.52,0,18.34,5,21.28,13.13,7.21-17,17-40.52,17-46.2s4.24-11.51,13.57-11.51c11.16,0,26.68,11.09,26.68,22,0,4.09-2.33,11.21-7.14,22.89a13.85,13.85,0,0,1,2.94-.31c5.24,0,18.32,0,25,5.77a13.22,13.22,0,0,1,11.95-5.77c13.21,0,25.72,10.77,26.79,22.62a55.13,55.13,0,0,0,1-11.1,11.44,11.44,0,0,1,11.38-11.51h.51c18.56,0,30,11.43,30,22,0,3.5-1.78,8.41-6.17,20.15-2.44,6.53-5.22,14-7.73,21.61-1.14,3.42-2.26,7-3.42,10.71C548.77,333.81,536,374.66,499.31,374.66ZM120.41,237.54a87.43,87.43,0,0,0-4.07,26.91c0,11.38,5.44,17.9,14.9,17.9a23.57,23.57,0,0,0,14.48-5.22,14.87,14.87,0,0,1,8.57-3.23,9.82,9.82,0,0,1,5.57,1.77c2.86-7.48,6.83-17.07,12-29.44,2.28-5.47,4.95-11.81,7.52-18.11-9.75,7.54-23.9,11.11-37.47,11.11A154.87,154.87,0,0,1,120.41,237.54Zm347.68,37.65c.41,0,.83.05,1.25.05a7,7,0,0,0,2.44-.37,14.59,14.59,0,0,1,4.49-.76,12.84,12.84,0,0,1,3.33.43c1.2-2.91,2.54-5.9,3.92-8.94a90.9,90.9,0,0,1-15.43,9.58ZM68.87,230.44c-7.59,0-7.59,2.65-7.59,4.41a12.91,12.91,0,0,0,2.56,7.21,19.17,19.17,0,0,1,2,3.88,79,79,0,0,1,4.53-15.49Zm82.27-28.69a27.33,27.33,0,0,0-12.47,6.68c7.36-1.45,11.1-4.5,12.47-6.68Z" transform="translate(-2.95 -2.69)"/><path id="Path_12" data-name="Path 12" class="cls-2" d="M94.35,208.63c17.05-18,40.65-28.48,58.25-28.48,17.24,0,30.91,8.25,30.91,23.23,0,19.11-21.54,27.54-41.58,27.54a176.83,176.83,0,0,1-27-2.61A93.69,93.69,0,0,0,108,264.46c0,17.6,10.5,26.22,23.23,26.22a31.77,31.77,0,0,0,19.29-6.74,6.93,6.93,0,0,1,3.75-1.69c1.68,0,4.11,4.5,4.11,6.55,0,1.5-.93,2.81-2.81,4.51a55.25,55.25,0,0,1-33.52,12.17c-26,0-49.26-14.43-49.26-45A70.91,70.91,0,0,1,83.3,223.25a99.63,99.63,0,0,0-14.43-1.12c-10.48,0-15.92,4.68-15.92,12.73S58,247.22,58,249.09c0,1.13-.94,1.88-2.43,1.88-6,0-27.72-11.61-27.72-31.66,0-12.17,11.8-21.91,25.85-21.91S81.05,203,94.35,208.63Zm26.41,8.43a64.17,64.17,0,0,0,8.43.56c21,0,30.9-9.55,30.9-17.62a6.69,6.69,0,0,0-6.63-6.76H153c-10.12,0-22.86,8.63-32.22,23.8ZM233,297.79c0,9.36,6,16.67,17.23,16.67a40.18,40.18,0,0,0,10.12-2.06,2.16,2.16,0,0,1,2.25,2.06v.18c0,3.75-11.62,16.11-31.84,16.11-15.55,0-28.28-10.3-28.28-25.47,0-21.92,17.23-41,17.23-48.51a2.85,2.85,0,0,0-2.7-3,1.5,1.5,0,0,0-.3,0c-3.56,0-11.61,2.81-17,12.18-5.81,9.74-12.73,28.65-12.73,35,0,2.81-.56,4.5-3.56,4.5-8.81,0-21-2.25-21-9,0-12.36,36.34-85.79,36.34-100,0-1.88,1.69-3.19,5.24-3.19,9.75,0,18.36,8.43,18.36,13.68,0,8.05-14.61,36.71-14.61,39.16a.5.5,0,0,0,.42.56h.14c.75,0,13.68-8.82,25.67-8.82,9.36,0,14.41,4.87,14.41,12.37,0,12.72-15.37,29.39-15.37,47.57Zm42.33-13.12c0,2.25,1.12,3.37,3.19,3.37,10.86,0,23.78-29.4,23.78-47,0-1.87,1.31-3.18,3.94-3.18,10.86,0,21.53,7.67,21.53,13.67,0,5.81-14,25.85-14,42.52a43.9,43.9,0,0,0,1.31,9.18c0,1.3-.94,2.24-2.81,2.24-15.17,0-21-10.48-22.29-10.48-2.06,0-12.17,10.48-27.91,10.48-8.81,0-15.74-5-15.74-14.79,0-13.49,15.18-34.66,15.18-49.64,0-1.87,1.87-3.18,5.44-3.18,9.18,0,18.35,8.24,18.35,15.92,0,9.72-9.94,21.53-9.94,30.9ZM377,253.77c-2.81,0-9,4.12-14.43,12.55-6.55,10.3-14.23,26.6-14.23,34.65,0,2.81-.56,4.5-3.56,4.5-8.81,0-21-2.25-21-9,0-13.49,17-40.47,17-55.44,0-1.88,1.69-3.19,5.25-3.19,16.67,0,17.42,13.67,18.16,13.67s13.3-13.67,30.16-13.67c9.37,0,14.24,4.87,14.24,12.36,0,12.73-15.36,29.41-15.36,47.58,0,9.36,6,16.66,17.41,16.66a35.48,35.48,0,0,0,9.93-2.05,2.33,2.33,0,0,1,2.44,2.21v0c0,3.75-11.8,16.11-31.85,16.11-15.73,0-28.28-10.3-28.28-25.47,0-21.92,17-41,17-48.51a2.76,2.76,0,0,0-2.48-3H377Zm66.49,7.3a.69.69,0,0,0,.62.75h.14c7.3,0,18.35-11.79,20.78-21.53a3.54,3.54,0,0,1,3.75-2.44c6.93,0,20.61.56,20.61,6.36,0,11.06-27.54,27.35-41,29.22a27.15,27.15,0,0,0,21,10.12,42.91,42.91,0,0,0,6.94-1.13c1.87,0,2.61.75,2.61,2.44,0,6.18-12.73,20.6-25.85,20.6-10.31,0-13.3-22.84-16.86-22.84-2.25,0-6.55,13.67-6.93,18.93-.19,2.8-.94,3.93-3.56,3.93-8.81,0-21-2.25-21-9,0-13.49,36.34-85,36.34-100,0-1.88,1.68-3.19,5.25-3.19,7.86,0,18.35,8.43,18.35,13.68,0,8.23-21.16,52-21.16,54.11Zm73,27a19.76,19.76,0,0,0,13.11-8.42c9.75-15.36,12.18-27.35,12.18-38.59a3.17,3.17,0,0,1,3.11-3.21l.45,0c13.67,0,21.73,7.67,21.73,13.67,0,3.75-7.49,21-13.49,39.16-10.11,30.53-19.85,75.66-54.31,75.66-23.42,0-35-19.1-35-25.28a2.77,2.77,0,0,1,2.71-2.81h.1c2.61,0,4.87,4.31,16.29,4.31,27.73,0,38.4-29.6,44-46.27,0-.56.19-.93.19-1.3a.41.41,0,0,0-.38-.38c-2.06,0-11.24,10.87-28.65,10.87-8.81,0-15-4.12-15-13.3,0-13.67,16.86-36.15,16.86-51.13,0-1.87,1.87-3.19,5.25-3.19,9.36,0,18.53,8.25,18.53,15.92,0,10.68-11.05,21.54-11.05,30.91A3.05,3.05,0,0,0,515.9,288a2.74,2.74,0,0,0,.64,0Z" transform="translate(-2.95 -2.69)"/></g></svg>